<svg width="89" height="87" viewBox="0 0 89 87" fill="none" xmlns="http://www.w3.org/2000/svg">
<rect x="1.5" y="1.5" width="86" height="84" rx="25.5" fill="url(#paint0_linear_1_2)"/>
<rect x="1.5" y="1.5" width="86" height="84" rx="25.5" stroke="#538B72" stroke-width="3"/>
<path d="M63.9615 27.5225C63.9615 26.8539 63.697 26.2151 63.2307 25.747C62.7649 25.2795 62.1357 25.02 61.4839 25.02H27.5161C26.8643 25.02 26.2351 25.2795 25.7693 25.747C25.303 26.2151 25.0385 26.8539 25.0385 27.5225V61.602L29.2611 57.3652C30.3875 56.2346 31.9185 55.5972 33.5183 55.5966H61.4839C62.1357 55.5966 62.7649 55.3354 63.2307 54.8679C63.6966 54.4 63.9615 53.7624 63.9615 53.0941V27.5225ZM67.5 53.0941C67.4999 54.6861 66.8691 56.2159 65.7429 57.3463C64.616 58.4772 63.0843 59.1166 61.4839 59.1166H33.5201C32.8684 59.1168 32.2406 59.3763 31.775 59.8437H31.7733L27.0997 64.5359C26.6425 64.9947 26.0572 65.309 25.4186 65.4365C24.7801 65.5639 24.1185 65.4987 23.518 65.2491C22.9176 64.9995 22.4058 64.5771 22.0477 64.0391C21.7347 63.5688 21.55 63.0273 21.5086 62.4682L21.5 62.2276V27.5225C21.5 25.9304 22.1308 24.3991 23.2571 23.2686C24.3839 22.138 25.9159 21.5 27.5161 21.5H61.4839C63.0841 21.5 64.6161 22.138 65.7429 23.2686C66.8692 24.3991 67.5 25.9304 67.5 27.5225V53.0941Z" fill="white"/>
<defs>
<linearGradient id="paint0_linear_1_2" x1="3" y1="3" x2="83.9759" y2="85.9753" gradientUnits="userSpaceOnUse">
<stop stop-color="#23CB69"/>
<stop offset="1" stop-color="#14947C"/>
</linearGradient>
</defs>
</svg>
